# xmcd
#
# Track frame offsets: 
#        150
#        15090
#        33756
#        52411
#        66863
#        82813
#        99607
#        117865
#        133546
#        151920
#        171097
#        190797
#        209241
#        226383
#        239657
#        252257
#        273554
#        291232
#        314037
#        345670
#
# Disc length: 4629 seconds
#
# Revision: 0
# Processed by: cddbd v1.5.2PL0 Copyright (c) Steve Scherf et al.
# Submitted via: ExactAudioCopy v1.0b1
#
DISCID=25121314
DTITLE=Various Artist - Sounds from DIG
DYEAR=2003
DGENRE=Misc
TTITLE0=Jason Ringenberg - Honky Tonk Maniac From Mars
TTITLE1=Vika and Linda - Love Is Mighty Close
TTITLE2=Archie Roach - Mission Ration Blues
TTITLE3=Butterfly 9 - Another Perfect Day
TTITLE4=Elvis Costello - 45
TTITLE5=Dog Trumpet - This Waiting Game
TTITLE6=Van Morrison - Evening Shadows
TTITLE7=Ozomatl - Dos Cosas Ciertas
TTITLE8=Lisa Miller - Have A Little Mercy
TTITLE9=Josh Rouse - Christmas With Jesus
TTITLE10=The Revelators - Key To My Heart
TTITLE11=Jack Howard - Great White Way
TTITLE12=Yothu Yindi - Ghost Spirits
TTITLE13=Jackie Orszaczky - Tibor Tatrai (Sure Thing)
TTITLE14=Shelby Lynne - Your Lies
TTITLE15=Wicked Beat Sound System - Give Jazz A Break
TTITLE16=The Whitlams - Witness Protection Scheme
TTITLE17=Gare Du Nord - Pablo's Blues
TTITLE18=Kasey Chamblers - Nullarbor Song
TTITLE19=STOOPID COPY PROTECTION TRACK
EXTD=
EXTT0=
EXTT1=
EXTT2=
EXTT3=
EXTT4=
EXTT5=
EXTT6=
EXTT7=
EXTT8=
EXTT9=
EXTT10=
EXTT11=
EXTT12=
EXTT13=
EXTT14=
EXTT15=
EXTT16=
EXTT17=
EXTT18=
EXTT19=
PLAYORDER=
